HIERARCHY
ROOT Hips
{
	OFFSET 0.000000 83.214638 0.000000
	CHANNELS 6 Xposition Yposition Zposition Xrotation Yrotation Zrotation
	JOINT Pelvis
	{
		OFFSET 0.000000 0.000000 0.000000
		CHANNELS 3 Xrotation Yrotation Zrotation
		JOINT LeftUpLeg
		{
			OFFSET 8.479700 -4.795502 -0.379100
			CHANNELS 3 Xrotation Yrotation Zrotation
			JOINT LeftLeg
			{
				OFFSET 0.024144 -32.555107 0.112900
				CHANNELS 3 Xrotation Yrotation Zrotation
				JOINT LeftFoot
				{
					OFFSET -0.024144 -32.638630 -3.012600
					CHANNELS 3 Xrotation Yrotation Zrotation
					JOINT LeftToeBase
					{
						OFFSET 0.970200 -13.225400 11.864200
						CHANNELS 3 Xrotation Yrotation Zrotation
						End Site
						{
							OFFSET 0.000000 12.319262 0.000000
						}
					}
					JOINT LFootTongue
					{
						OFFSET 1.142400 -1.059800 6.665200
						CHANNELS 3 Xrotation Yrotation Zrotation
						End Site
						{
							OFFSET 0.000000 12.319262 0.000000
						}
					}
				}
				JOINT LeftPantLeg
				{
					OFFSET 0.918482 -16.533964 -2.284700
					CHANNELS 3 Xrotation Yrotation Zrotation
					End Site
					{
						OFFSET 0.350399 24.744368 0.000000
					}
				}
			}
		}
		JOINT RightUpLeg
		{
			OFFSET -8.479700 -4.795502 -0.379100
			CHANNELS 3 Xrotation Yrotation Zrotation
			JOINT RightLeg
			{
				OFFSET -0.023144 -32.555092 0.112900
				CHANNELS 3 Xrotation Yrotation Zrotation
				JOINT RightFoot
				{
					OFFSET 0.023144 -32.638641 -3.012700
					CHANNELS 3 Xrotation Yrotation Zrotation
					JOINT RightToeBase
					{
						OFFSET -0.970200 -13.225400 11.864200
						CHANNELS 3 Xrotation Yrotation Zrotation
						End Site
						{
							OFFSET 0.000000 12.319244 0.000000
						}
					}
					JOINT RFootTongue
					{
						OFFSET -1.142200 -1.059800 6.665200
						CHANNELS 3 Xrotation Yrotation Zrotation
						End Site
						{
							OFFSET 0.000000 12.319243 0.000000
						}
					}
				}
				JOINT RightPantLeg
				{
					OFFSET -0.919482 -16.533978 -2.284800
					CHANNELS 3 Xrotation Yrotation Zrotation
					End Site
					{
						OFFSET -0.350400 24.744419 0.000000
					}
				}
			}
		}
	}
	JOINT Spine
	{
		OFFSET 0.000000 7.722000 1.166200
		CHANNELS 3 Xrotation Yrotation Zrotation
		JOINT Spine1
		{
			OFFSET 0.000000 12.024101 0.248800
			CHANNELS 3 Xrotation Yrotation Zrotation
			JOINT Spine2
			{
				OFFSET 0.000000 11.502998 -0.491200
				CHANNELS 3 Xrotation Yrotation Zrotation
				JOINT Neck
				{
					OFFSET 0.000000 18.430702 -3.123100
					CHANNELS 3 Xrotation Yrotation Zrotation
					JOINT Head
					{
						OFFSET 0.000000 9.051102 1.034000
						CHANNELS 3 Xrotation Yrotation Zrotation
						JOINT HairB
						{
							OFFSET 0.208400 24.786102 24.822300
							CHANNELS 3 Xrotation Yrotation Zrotation
							End Site
							{
								OFFSET 0.000000 32.263779 0.000000
							}
						}
						JOINT HairA
						{
							OFFSET -7.081100 24.428299 23.196600
							CHANNELS 3 Xrotation Yrotation Zrotation
							End Site
							{
								OFFSET 0.000000 32.263779 0.000000
							}
						}
						JOINT Hat
						{
							OFFSET 16.728800 15.048294 -15.439601
							CHANNELS 3 Xrotation Yrotation Zrotation
							End Site
							{
								OFFSET 0.000000 32.263779 0.000000
							}
						}
					}
				}
				JOINT LeftShoulder
				{
					OFFSET 6.197800 13.665199 -4.064700
					CHANNELS 3 Xrotation Yrotation Zrotation
					JOINT LeftArm
					{
						OFFSET 7.778100 -0.187103 -1.709300
						CHANNELS 3 Xrotation Yrotation Zrotation
						JOINT LeftForeArm
						{
							OFFSET 22.049376 0.000000 0.000000
							CHANNELS 3 Xrotation Yrotation Zrotation
							JOINT LeftHand
							{
								OFFSET 23.009392 0.000000 0.000000
								CHANNELS 3 Xrotation Yrotation Zrotation
								JOINT LeftHandThumb1
								{
									OFFSET 3.507191 -2.063065 3.133727
									CHANNELS 3 Xrotation Yrotation Zrotation
									JOINT LeftHandThumb2
									{
										OFFSET 3.101337 -1.790558 1.790558
										CHANNELS 3 Xrotation Yrotation Zrotation
										JOINT LeftHandThumb3
										{
											OFFSET 3.058640 -1.765907 1.765906
											CHANNELS 3 Xrotation Yrotation Zrotation
											End Site
											{
												OFFSET -0.415260 3.926476 -0.049563
											}
										}
									}
								}
								JOINT LeftHandIndex1
								{
									OFFSET 11.334419 -0.901459 3.706815
									CHANNELS 3 Xrotation Yrotation Zrotation
									JOINT LeftHandIndex2
									{
										OFFSET 3.283112 0.000000 0.000000
										CHANNELS 3 Xrotation Yrotation Zrotation
										JOINT LeftHandIndex3
										{
											OFFSET 3.323853 0.000000 0.000000
											CHANNELS 3 Xrotation Yrotation Zrotation
											End Site
											{
												OFFSET -1.135597 3.097809 0.402452
											}
										}
									}
								}
								JOINT LeftHandMiddle1
								{
									OFFSET 11.335861 0.000000 0.000000
									CHANNELS 3 Xrotation Yrotation Zrotation
									JOINT LeftHandMiddle2
									{
										OFFSET 3.410492 0.000000 0.000000
										CHANNELS 3 Xrotation Yrotation Zrotation
										JOINT LeftHandMiddle3
										{
											OFFSET 3.312172 0.000000 0.000000
											CHANNELS 3 Xrotation Yrotation Zrotation
											End Site
											{
												OFFSET -1.150200 3.080154 0.400270
											}
										}
									}
								}
								JOINT LeftHandRing1
								{
									OFFSET 11.514786 -0.013176 -3.003090
									CHANNELS 3 Xrotation Yrotation Zrotation
									JOINT LeftHandRing2
									{
										OFFSET 3.053307 0.000000 0.000000
										CHANNELS 3 Xrotation Yrotation Zrotation
										JOINT LeftHandRing3
										{
											OFFSET 3.295807 0.000000 0.000000
											CHANNELS 3 Xrotation Yrotation Zrotation
											End Site
											{
												OFFSET -1.281006 3.013344 0.375733
											}
										}
									}
								}
								JOINT LeftHandPinky1
								{
									OFFSET 10.518692 -0.960396 -5.730441
									CHANNELS 3 Xrotation Yrotation Zrotation
									JOINT LeftHandPinky2
									{
										OFFSET 2.861649 0.000000 0.000000
										CHANNELS 3 Xrotation Yrotation Zrotation
										JOINT LeftHandPinky3
										{
											OFFSET 2.863380 0.000000 0.000000
											CHANNELS 3 Xrotation Yrotation Zrotation
											End Site
											{
												OFFSET -0.843597 2.711159 0.369971
											}
										}
									}
								}
							}
							JOINT LSleeve
							{
								OFFSET 6.676277 -0.344902 -1.011730
								CHANNELS 3 Xrotation Yrotation Zrotation
								End Site
								{
									OFFSET 0.000000 14.885353 0.000000
								}
							}
						}
					}
				}
				JOINT RightShoulder
				{
					OFFSET -6.197800 13.665199 -4.064700
					CHANNELS 3 Xrotation Yrotation Zrotation
					JOINT RightArm
					{
						OFFSET -7.778100 -0.187103 -1.709300
						CHANNELS 3 Xrotation Yrotation Zrotation
						JOINT RightForeArm
						{
							OFFSET -22.049376 0.000000 0.000000
							CHANNELS 3 Xrotation Yrotation Zrotation
							JOINT RightHand
							{
								OFFSET -23.009392 0.000000 0.000000
								CHANNELS 3 Xrotation Yrotation Zrotation
								JOINT RightHandThumb1
								{
									OFFSET -3.507191 -2.063065 3.133727
									CHANNELS 3 Xrotation Yrotation Zrotation
									JOINT RightHandThumb2
									{
										OFFSET -3.101337 -1.790558 1.790558
										CHANNELS 3 Xrotation Yrotation Zrotation
										JOINT RightHandThumb3
										{
											OFFSET -3.058640 -1.765907 1.765906
											CHANNELS 3 Xrotation Yrotation Zrotation
											End Site
											{
												OFFSET 0.415260 3.926476 -0.049563
											}
										}
									}
								}
								JOINT RightHandIndex1
								{
									OFFSET -11.334419 -0.901459 3.706815
									CHANNELS 3 Xrotation Yrotation Zrotation
									JOINT RightHandIndex2
									{
										OFFSET -3.283112 0.000000 0.000000
										CHANNELS 3 Xrotation Yrotation Zrotation
										JOINT RightHandIndex3
										{
											OFFSET -3.323853 0.000000 0.000000
											CHANNELS 3 Xrotation Yrotation Zrotation
											End Site
											{
												OFFSET 1.135597 3.097809 0.402452
											}
										}
									}
								}
								JOINT RightHandMiddle1
								{
									OFFSET -11.335861 0.000000 0.000000
									CHANNELS 3 Xrotation Yrotation Zrotation
									JOINT RightHandMiddle2
									{
										OFFSET -3.410492 0.000000 0.000000
										CHANNELS 3 Xrotation Yrotation Zrotation
										JOINT RightHandMiddle3
										{
											OFFSET -3.312172 0.000000 0.000000
											CHANNELS 3 Xrotation Yrotation Zrotation
											End Site
											{
												OFFSET 1.150200 3.080154 0.400270
											}
										}
									}
								}
								JOINT RightHandRing1
								{
									OFFSET -11.514786 -0.013176 -3.003090
									CHANNELS 3 Xrotation Yrotation Zrotation
									JOINT RightHandRing2
									{
										OFFSET -3.053307 0.000000 0.000000
										CHANNELS 3 Xrotation Yrotation Zrotation
										JOINT RightHandRing3
										{
											OFFSET -3.295807 0.000000 0.000000
											CHANNELS 3 Xrotation Yrotation Zrotation
											End Site
											{
												OFFSET 1.281006 3.013344 0.375733
											}
										}
									}
								}
								JOINT RightHandPinky1
								{
									OFFSET -10.518692 -0.960396 -5.730441
									CHANNELS 3 Xrotation Yrotation Zrotation
									JOINT RightHandPinky2
									{
										OFFSET -2.861649 0.000000 0.000000
										CHANNELS 3 Xrotation Yrotation Zrotation
										JOINT RightHandPinky3
										{
											OFFSET -2.863380 0.000000 0.000000
											CHANNELS 3 Xrotation Yrotation Zrotation
											End Site
											{
												OFFSET 0.843597 2.711159 0.369971
											}
										}
									}
								}
							}
							JOINT RSleeve
							{
								OFFSET -6.676277 -0.344902 -1.011730
								CHANNELS 3 Xrotation Yrotation Zrotation
								End Site
								{
									OFFSET 0.000000 14.885353 0.000000
								}
							}
						}
					}
				}
				JOINT Backpack
				{
					OFFSET 0.000000 -2.471497 36.677502
					CHANNELS 3 Xrotation Yrotation Zrotation
					End Site
					{
						OFFSET 0.000000 20.427315 0.000000
					}
				}
				JOINT Hood
				{
					OFFSET 0.000000 18.754097 -10.431000
					CHANNELS 3 Xrotation Yrotation Zrotation
					JOINT Hood1
					{
						OFFSET 0.000000 -5.011002 -7.685901
						CHANNELS 3 Xrotation Yrotation Zrotation
						End Site
						{
							OFFSET 0.000000 9.175140 0.000000
						}
					}
				}
				JOINT LHoodieString
				{
					OFFSET 5.250500 16.397697 3.089900
					CHANNELS 3 Xrotation Yrotation Zrotation
					JOINT LHoodieString1
					{
						OFFSET 0.257700 -6.364304 3.694600
						CHANNELS 3 Xrotation Yrotation Zrotation
						JOINT LHoodieString2
						{
							OFFSET 0.000000 -9.643799 2.679100
							CHANNELS 3 Xrotation Yrotation Zrotation
							End Site
							{
								OFFSET 0.000000 10.009018 0.000000
							}
						}
					}
				}
				JOINT RHoodieString
				{
					OFFSET -5.250500 16.397697 3.089900
					CHANNELS 3 Xrotation Yrotation Zrotation
					JOINT RHoodieString1
					{
						OFFSET -0.257700 -6.364304 3.694600
						CHANNELS 3 Xrotation Yrotation Zrotation
						JOINT RHoodieString2
						{
							OFFSET 0.000000 -9.643799 2.679100
							CHANNELS 3 Xrotation Yrotation Zrotation
							End Site
							{
								OFFSET 0.000000 10.009018 0.000000
							}
						}
					}
				}
			}
			JOINT LBackpack_Strap
			{
				OFFSET 15.223200 -7.719803 -6.610900
				CHANNELS 3 Xrotation Yrotation Zrotation
				End Site
				{
					OFFSET 0.000000 16.040596 0.000000
				}
			}
			JOINT RBackpack_Strap
			{
				OFFSET -15.223000 -7.719803 -6.610900
				CHANNELS 3 Xrotation Yrotation Zrotation
				End Site
				{
					OFFSET 0.000000 16.040596 0.000000
				}
			}
		}
	}
	JOINT BoyFacialAnim_Joint
	{
		OFFSET 1.000000 -82.208099 -1.550900
		CHANNELS 3 Xrotation Yrotation Zrotation
		End Site
		{
			OFFSET 0.000000 30.012791 0.000000
		}
	}
}
MOTION
Frames: 4
Frame Time: 0.033333
-0.023847 78.672417 0.493573 3.635702 -8.609537 -0.006980 0.000000 0.000000 -0.000000 -32.758684 16.987440 30.193534 46.655974 -20.594105 -3.456485 -0.893177 -14.337962 -17.198688 -0.000003 0.000000 0.000000 -0.000003 0.000000 0.000001 0.000000 0.000001 0.000001 -32.481832 -13.626880 -20.655653 33.280186 13.165594 0.676123 -0.376452 5.154697 9.650073 -0.000000 0.000000 0.000000 -0.000000 0.000000 0.000000 0.000000 0.000002 -0.000001 7.940027 2.139451 1.214770 5.894335 2.507381 1.510297 7.669658 2.381584 1.402775 19.514463 -1.064674 0.031413 2.074712 5.981457 -5.820736 -0.000003 -0.000001 -0.000000 -0.000003 -0.000001 -0.000000 -0.000003 -0.000001 -0.000000 -1.486623 4.589250 7.662768 -43.723357 12.010819 -33.849352 -24.049820 -126.712126 -40.721786 -1.132079 -8.333640 -7.914051 40.085759 -0.954265 -20.751250 5.156579 21.098478 19.107596 0.000003 0.000002 -0.000002 18.324907 -0.102594 -38.974606 -3.927038 -9.263161 -32.256695 0.000002 -0.000001 0.000003 -5.683299 14.855028 -33.525915 1.498388 3.738154 -43.673240 0.000001 -0.000001 0.000000 -13.972622 19.864321 -31.046321 1.498374 3.738161 -43.673206 -0.000001 0.000001 -0.000000 -16.766407 2.966669 -36.666747 0.754040 2.756658 -30.590863 0.000001 0.000003 0.000002 -0.000000 0.000000 0.000001 -4.176277 -10.334641 -2.430890 -111.743671 57.464417 75.755117 -4.205573 38.269615 18.276495 8.698412 11.456105 -26.470950 40.085742 0.954277 20.751245 5.156585 -21.098494 -19.107579 0.000001 0.000001 0.000003 18.324899 0.102588 38.974620 -3.927028 9.263157 32.256661 -0.000002 -0.000002 0.000002 -5.683287 -14.855040 33.525915 1.498354 -3.738126 43.673196 -0.000000 -0.000003 -0.000001 -13.972614 -19.864335 31.046321 1.498368 -3.738142 43.673206 0.000001 0.000000 0.000004 -16.766398 -2.966666 36.666761 0.754033 -2.756667 30.590853 0.000000 0.000003 0.000001 -0.000001 -0.000000 -0.000001 -0.000002 0.000000 0.000001 -0.000002 0.000000 0.000001 -0.000002 0.000000 0.000001 -0.000002 0.000000 0.000001 -0.000002 0.000000 0.000001 0.000000 0.000000 0.000001 -0.000002 0.000000 0.000001 -0.000002 0.000000 0.000001 0.000000 0.000000 0.000001 0.000002 0.000000 -0.000000 0.000002 0.000000 -0.000000 0.000000 0.000000 -0.000000 
-0.089044 85.249290 0.529103 1.433507 -8.360043 -3.127501 -0.000000 -0.000000 -0.000000 -24.606629 11.114848 27.223724 40.049924 -17.142545 -1.183100 2.553080 -9.320411 -25.390748 0.000000 -0.000001 -0.000002 0.000000 -0.000001 -0.000002 0.000002 0.000000 0.000001 -27.276405 -12.407031 -17.194680 30.348699 9.566910 -0.532024 9.953384 7.473579 17.046028 0.000002 0.000001 -0.000000 0.000002 0.000001 -0.000000 0.000000 0.000001 -0.000002 8.008093 1.897713 5.121527 5.405363 1.044519 1.496997 7.166789 0.932721 1.464587 21.106063 -0.864529 1.256843 10.787421 6.525431 -8.630858 -0.000002 0.000000 -0.000000 -0.000002 0.000000 -0.000000 -0.000002 0.000000 -0.000000 -1.339023 6.101011 3.773340 -36.611849 15.518028 -31.122013 -27.417558 -122.924185 -44.284167 0.538133 -9.941398 -6.126415 37.322619 -0.419485 -18.641186 4.957562 18.765984 18.545087 -0.000001 -0.000001 0.000001 17.444554 -1.400811 -36.684792 -4.455514 -8.130118 -31.388227 0.000003 0.000001 -0.000002 -5.841052 14.619707 -32.779478 1.440542 3.676748 -42.778861 0.000004 -0.000001 -0.000002 -13.481008 20.746519 -31.401815 1.482579 3.721569 -43.430478 -0.000002 0.000000 -0.000002 -15.484455 7.177999 -38.112971 0.757952 2.763270 -30.672324 0.000001 -0.000001 -0.000000 -0.000000 -0.000001 -0.000002 -3.365211 -1.801214 -1.514145 -76.896455 75.516566 42.388250 -10.525374 32.394846 14.709171 8.672539 6.163808 -14.819265 40.085748 0.954271 20.751240 5.156591 -21.098473 -19.107586 0.000002 0.000002 0.000004 18.324913 0.102574 38.974606 -3.927034 9.263173 32.256661 -0.000000 0.000001 0.000005 -5.683299 -14.855031 33.525905 1.498355 -3.738124 43.673199 0.000000 0.000000 -0.000004 -13.972620 -19.864328 31.046321 1.498363 -3.738127 43.673217 -0.000000 0.000001 0.000001 -16.766403 -2.966664 36.666754 0.754034 -2.756651 30.590860 -0.000003 0.000002 0.000004 -0.000001 -0.000000 -0.000000 -0.000000 0.000000 -0.000000 -0.000000 0.000000 -0.000000 -0.000000 0.000000 -0.000000 -0.000000 0.000000 -0.000000 -0.000000 0.000000 -0.000000 -0.000002 0.000000 0.000000 -0.000000 0.000000 -0.000000 -0.000000 0.000000 -0.000000 -0.000002 0.000000 0.000000 0.000001 0.000000 0.000000 0.000001 0.000000 0.000000 -0.000000 -0.000000 -0.000000 
-0.123132 92.556679 0.585608 -2.267919 -7.873240 -4.279481 -0.000000 0.000001 0.000000 -18.034532 11.943381 27.820450 33.309234 -10.318202 -0.942125 7.106837 -14.959421 -29.912356 -0.000002 0.000001 -0.000001 -0.000002 0.000001 -0.000000 -0.000001 0.000000 0.000001 -22.197106 -11.804566 -16.759973 28.983857 8.515063 -0.802191 12.391094 8.655904 20.936830 0.000002 0.000000 -0.000000 0.000002 0.000000 -0.000000 -0.000000 -0.000001 -0.000000 11.555455 1.467391 5.444626 6.047687 0.056224 1.636327 7.798470 -0.041049 1.652979 21.775902 -0.641770 1.391246 14.007473 6.539913 -9.487733 -0.000003 0.000000 0.000000 -0.000003 0.000000 0.000000 -0.000003 0.000000 0.000000 -1.065326 6.133857 0.939460 -30.115919 20.092149 -29.770237 -34.168482 -113.496557 -52.425182 6.517418 -11.367444 -4.729501 34.006173 -0.021047 -16.367387 4.712546 16.137065 17.930947 -0.000005 0.000000 0.000001 16.735493 -3.309368 -34.613971 -5.106220 -6.871771 -30.653264 -0.000001 -0.000002 -0.000004 -6.002103 14.405581 -32.443313 1.393665 3.625538 -42.042724 0.000000 0.000000 -0.000001 -12.928350 21.825467 -32.310439 1.482359 3.721362 -43.427101 0.000001 -0.000001 -0.000002 -13.945733 11.794081 -40.475793 0.764702 2.774598 -30.811772 0.000000 0.000002 -0.000002 -0.000000 -0.000001 -0.000000 -2.043596 12.153872 -1.425850 2.497341 57.209702 -35.992525 -26.015636 32.395054 14.709407 4.830257 6.723889 5.954096 40.085748 0.954258 20.751242 5.156606 -21.098477 -19.107579 -0.000005 -0.000000 0.000000 18.324901 0.102589 38.974620 -3.927039 9.263177 32.256665 -0.000003 -0.000000 -0.000002 -5.683304 -14.855019 33.525919 1.498353 -3.738127 43.673199 0.000000 0.000002 -0.000003 -13.972627 -19.864318 31.046324 1.498375 -3.738152 43.673206 0.000001 -0.000000 0.000004 -16.766415 -2.966647 36.666767 0.754045 -2.756665 30.590853 -0.000000 0.000001 -0.000001 -0.000001 -0.000000 -0.000000 0.000001 -0.000001 0.000001 0.000001 -0.000001 0.000001 0.000001 -0.000001 0.000001 0.000001 -0.000001 0.000001 0.000001 -0.000001 -0.000000 0.000001 0.000000 0.000001 0.000001 -0.000001 0.000001 0.000001 -0.000001 -0.000000 0.000001 0.000000 0.000001 0.000000 -0.000001 0.000000 0.000000 -0.000001 0.000000 -0.000000 0.000001 0.000000 
-0.124121 98.958778 0.632086 -7.117967 -8.415669 -4.273189 0.000000 0.000000 0.000000 -15.503925 12.218202 29.369229 37.822862 -10.264988 -1.967515 5.731727 -14.382357 -32.433758 -0.000001 -0.000000 -0.000003 -0.000001 -0.000000 -0.000003 0.000001 0.000000 0.000001 -18.833898 -10.615349 -19.170784 31.307579 11.908455 0.880045 17.851538 10.290736 25.566006 0.000001 0.000001 -0.000000 0.000001 0.000001 -0.000000 0.000001 0.000002 -0.000000 18.665425 1.964627 2.907248 7.516634 -0.113565 1.992542 9.270220 -0.164555 2.021602 20.408095 -0.099720 1.391951 12.655063 6.505418 -9.001305 0.000001 0.000000 0.000000 0.000001 0.000000 0.000000 0.000001 0.000000 0.000000 -0.946405 5.138872 0.530098 -24.329653 24.224285 -29.192382 -59.386316 -102.247017 -79.418680 6.724274 -11.116688 -3.067601 30.273649 0.162776 -14.095642 4.429329 13.345013 17.298955 0.000001 -0.000001 0.000001 16.194469 -5.550683 -32.648352 -5.835625 -5.554870 -29.970320 -0.000001 0.000000 -0.000004 -6.165746 14.203343 -32.328173 1.352761 3.579733 -41.391793 -0.000000 -0.000000 0.000000 -12.305921 22.996660 -33.533917 1.490510 3.729907 -43.552609 -0.000003 0.000001 -0.000000 -11.932810 16.494442 -43.460268 0.772979 2.788412 -30.982459 -0.000000 -0.000003 -0.000002 -0.000000 0.000000 0.000002 -0.995617 20.297581 -1.434838 8.172548 35.443211 -43.089041 -36.034688 32.395010 14.709603 1.579024 11.925554 19.615301 40.085742 0.954254 20.751243 5.156576 -21.098495 -19.107586 0.000000 -0.000000 -0.000001 18.324901 0.102573 38.974613 -3.927035 9.263178 32.256654 -0.000001 -0.000001 0.000002 -5.683309 -14.855035 33.525919 1.498352 -3.738128 43.673196 0.000001 0.000000 0.000002 -13.972632 -19.864323 31.046314 1.498350 -3.738143 43.673227 0.000000 0.000000 -0.000001 -16.766402 -2.966673 36.666740 0.754038 -2.756654 30.590857 0.000000 -0.000000 0.000002 -0.000000 -0.000000 -0.000001 -0.000000 0.000000 -0.000000 -0.000000 0.000000 -0.000000 -0.000000 0.000000 -0.000000 -0.000000 0.000000 -0.000000 -0.000000 0.000000 -0.000001 -0.000000 0.000001 -0.000000 -0.000000 0.000000 -0.000000 -0.000000 0.000000 -0.000001 -0.000000 0.000001 -0.000000 0.000001 0.000000 -0.000000 0.000001 0.000000 -0.000000 0.000000 0.000000 0.000000 
